<svg xmlns="http://www.w3.org/2000/svg" viewBox="0 0 24 24" role="img" aria-labelledby="title">
  <title id="title">Google Workspace</title>
  <path fill="#4285f4" d="M22.56 12.25c0-.78-.07-1.53-.2-2.25H12v4.26h5.92a5.06 5.06 0 0 1-2.21 3.31v2.77h3.58c2.1-1.93 3.27-4.78 3.27-8.09Z"/>
  <path fill="#34a853" d="M12 23c3 0 5.52-.99 7.36-2.69l-3.58-2.77c-.99.66-2.26 1.06-3.78 1.06-2.9 0-5.36-1.96-6.24-4.6H2.07v2.84A11.12 11.12 0 0 0 12 23Z"/>
  <path fill="#fbbc05" d="M5.76 14a6.64 6.64 0 0 1-.35-2.09c0-.73.13-1.43.35-2.09V6.98H2.07A11.02 11.02 0 0 0 1 11.91c0 1.77.43 3.44 1.19 4.93L5.76 14Z"/>
  <path fill="#ea4335" d="M12 5.21c1.63 0 3.09.56 4.24 1.65l3.18-3.18C17.52 1.9 15 1 12 1 7.67 1 3.9 3.52 2.07 6.98l3.69 2.84C6.64 7.18 9.1 5.21 12 5.21Z"/>
</svg>
